# xmcd
#
# Track frame offsets:
# 150
# 9502
# 21756
# 34376
# 47569
# 58432
# 69341
# 81081
# 93550
# 104939
# 116605
# 129888
# 142312
# 155717
# 167681
# 180428
# 192361
# 203993
# 216222
# 228622
# 241278
#
# Disc length: 3387 seconds
#
#
# Revision: 0
# Processed by: cddbd v1.4PL0 Copyright (c) Steve Scherf et al.
# Submitted via: FreeRIP 2.52 
#
DISCID=370d3915
DTITLE=Hank Williams - Blues Come Around
DYEAR=2001
DGENRE=Country
TTITLE0=Pan-American
TTITLE1=Lost Highway
TTITLE2=I'm So Lonesome I Could Cry
TTITLE3=Welcome Bells
TTITLE4=Moanin' the Blues
TTITLE5=Why Don't You Love Me?
TTITLE6=A Mansion on the Hill
TTITLE7=Lovesick Blues
TTITLE8=Nobody's Lonesome For Me
TTITLE9=My Son Calls Another Man Daddy
TTITLE10=Mind Your Own Business
TTITLE11=Move It On Over
TTITLE12=You're Gonna Change
TTITLE13=Why Should We Try Anymore?
TTITLE14=I Just Don't Like This Kind of Living
TTITLE15=Long Gone Lonesome Blues
TTITLE16=My Bucket's Got a Hole In it
TTITLE17=Blues Come Around
TTITLE18=Honky Tonkin'
TTITLE19=I Don't Care
TTITLE20=I'm a Long Gone Daddy
EXTD=
EXTT0=
EXTT1=
EXTT2=
EXTT3=
EXTT4=
EXTT5=
EXTT6=
EXTT7=
EXTT8=
EXTT9=
EXTT10=
EXTT11=
EXTT12=
EXTT13=
EXTT14=
EXTT15=
EXTT16=
EXTT17=
EXTT18=
EXTT19=
EXTT20=
PLAYORDER=
